<?xml version="1.0" encoding="utf-8"?>
<!-- Generator: Adobe Illustrator 25.2.3, SVG Export Plug-In . SVG Version: 6.00 Build 0)  -->
<svg version="1.1" id="Layer_1" xmlns="http://www.w3.org/2000/svg" xmlns:xlink="http://www.w3.org/1999/xlink" x="0px" y="0px"
	 viewBox="0 0 1080 358.4" style="enable-background:new 0 0 1080 358.4;" xml:space="preserve">
<style type="text/css">
	.st0{clip-path:url(#SVGID_2_);fill:#4DCED0;}
	.st1{fill:#2C2483;}
	.st2{clip-path:url(#SVGID_4_);fill:url(#SVGID_5_);}
	.st3{clip-path:url(#SVGID_7_);fill:url(#SVGID_8_);}
	.st4{clip-path:url(#SVGID_10_);fill:url(#SVGID_11_);}
	.st5{clip-path:url(#SVGID_13_);fill:url(#SVGID_14_);}
	.st6{clip-path:url(#SVGID_16_);fill:url(#SVGID_17_);}
	.st7{clip-path:url(#SVGID_19_);fill:url(#SVGID_20_);}
	.st8{clip-path:url(#SVGID_22_);fill:url(#SVGID_23_);}
</style>
<g>
	<g>
		<g>
			<defs>
				<path id="SVGID_1_" d="M124.9,80.7c6,4.9,14.7,4,19.6-2c4.9-6,4-14.7-2-19.6c-6-4.9-14.7-4-19.6,2
					C118,67.1,118.9,75.8,124.9,80.7"/>
			</defs>
			<clipPath id="SVGID_2_">
				<use xlink:href="#SVGID_1_"  style="overflow:visible;"/>
			</clipPath>
			
				<rect x="114.1" y="50.3" transform="matrix(0.6332 -0.774 0.774 0.6332 -5.0619 129.1367)" class="st0" width="39.2" height="39.3"/>
		</g>
	</g>
	<g>
		<path class="st1" d="M458.8,119.6c-3,5.2-7.2,10.1-12.6,14.7c-13,11-27.3,16.5-42.9,16.5c-17.3-0.1-32.2-7-44.8-20.6
			c-13.3-14.4-19.9-32.1-19.9-53c0-21.1,6.7-38.8,20.1-53.2c12.4-13.6,27.3-20.3,44.6-20.3c9.7,0,19.3,2.4,28.8,7.1
			c12.4,6.4,21.2,14.6,26.4,24.7L443,43.2c-1.7-3.5-4.4-6.8-8-10.2c-9.2-8.1-19.8-12.1-31.6-12.1c-12.1,0.1-22.7,5-31.8,14.5
			C361.2,46.6,356,60.6,356,77.2c0,14.3,4.1,26.9,12.3,37.9c9.4,12.3,21.1,18.4,35.1,18.4c5.9,0,11.8-1.2,17.7-3.7
			c10.4-4.3,17.9-10.6,22.5-18.8L458.8,119.6z"/>
		<path class="st1" d="M490,63.5c9.4-11.1,21-16.7,34.9-16.7c11.2,0,21.3,4,30.3,11.9v-3.2v-8.7h17.3v8.7v43.3v43.3v8.7h-17.3v-8.7
			v-3.2c-8.8,7.8-18.9,11.8-30.3,11.9c-11.7,0-22-4.2-30.9-12.6c-11.1-10.2-16.7-23.4-16.7-39.4C477.2,85.2,481.5,73.5,490,63.5z
			 M500.8,119.8c6.1,9.1,14.1,13.6,24,13.6c6.8,0,12.8-2.3,18.2-6.9c8.1-7.1,12.1-16.3,12.1-27.7c0-7.6-2.1-14.6-6.3-21
			c-6.1-9.1-14.1-13.6-24-13.6c-6.8,0-12.8,2.3-18.2,6.9c-8.1,7.1-12.1,16.3-12.1,27.7C494.5,106.5,496.6,113.5,500.8,119.8z"/>
		<path class="st1" d="M658.4,76.9c0-2.2-0.8-4.2-2.4-6.1c-3.6-4.5-9.4-6.7-17.3-6.7c-3,0-6,0.4-8.9,1.3
			c-7.2,2.3-10.8,6.1-10.8,11.5c0,1.2,0.4,2.3,1.3,3.5c2,2.5,8.7,5.4,19.9,8.9c7.2,2.2,12.6,4,16,5.4c15.3,6.2,22.9,14.9,22.7,26
			c0,5.8-2.2,11.2-6.5,16.5c-7.8,9.1-19,13.6-33.8,13.6c-10.4,0-19.4-2.5-27.1-7.6c-8.8-6.1-13.2-13.6-13.2-22.5h17.3
			c0,2.2,0.9,4.2,2.6,6.1c4,4.5,10.8,6.7,20.3,6.7c3.3,0,6.6-0.4,10-1.3c8.7-2.2,13-6,13-11.5c0-1-0.4-2.1-1.1-3.2
			c-2-2.4-8.6-5.3-19.7-8.7c-7.1-2.2-12.4-4-16-5.4c-15.3-6.2-23-15-23.2-26.4c0-6.1,2.2-11.8,6.5-17.1c7.2-8.7,17.4-13,30.5-13
			c9.1,0,17.1,2.4,24,7.1c8.7,6.1,13,13.7,13,22.9L658.4,76.9L658.4,76.9z"/>
		<path class="st1" d="M746,46.9c9.7,0,18.3,3.3,25.8,10c10.2,8.8,15.4,20.4,15.4,34.9v50.4l0.2,8.9h-17.1l-0.2-8.7l-0.2-50.6
			c0-5.6-1.4-10.8-4.1-15.6c-4.8-7.9-11.3-11.9-19.7-11.9c-4.9,0-9.4,1.6-13.4,4.8c-6.9,5.5-10.4,13.1-10.4,22.7v8.7v41.8v8.7h-17.3
			v-8.7v-41.8v-8.7V17.4V8.8h17.3v8.7v37.7C729.3,49.8,737.2,47,746,46.9z"/>
		<path class="st1" d="M369,310h-17.3v-8.7V171.5v-8.7H366l2.2,5.2l50.6,112.1l50.4-112.1l2.2-5.2h14.3v8.7l0.2,129.9v8.7h-17.3
			v-8.7l-0.2-89.6l-41.8,93.1l-2.2,5.2h-11.2l-2.2-5.2l-42-93.1v89.6L369,310L369,310z"/>
		<path class="st1" d="M564.4,206.2h18.6l-4.5,11.7l-32,86.4c-5.9,19.6-12,33.2-18.2,40.7c-5.5,6.5-13.1,9.7-22.7,9.7h-8.7v-17.3
			h8.7c4.5,0,8.1-1.7,11-5.2c3.5-4,7.6-14.2,12.6-30.5l-31.6-83.8l-4.5-11.7h18.6l2,5.6l24.7,64.9l24.2-64.9L564.4,206.2z"/>
		<path class="st1" d="M674.8,204c0-5-1.8-9.6-5.4-13.6c-6.2-6.8-14.6-10.2-25.3-10.2c-6.2,0-12.1,1.4-17.5,4.3
			c-8.8,4.6-13.2,11.1-13.2,19.5c0,1.4,0.4,3,1.1,4.5c2.4,4.8,10.6,9.8,24.5,15.2c17.2,6.8,27.5,11,30.9,12.6
			c17.5,8.8,26.2,19.7,26.2,32.7c-0.1,9.2-4,17.7-11.7,25.5c-10.5,10.4-24,15.6-40.3,15.6c-14.1,0-26.3-4-36.6-11.9
			c-10.2-8.2-15.4-18-15.4-29.2h17.3c0.1,5.1,2.3,9.7,6.5,13.9c7.1,6.6,16.5,10,28.1,10c7.4,0,14.2-1.6,20.6-4.8
			c9.4-4.8,14.1-11.1,14.1-19c0-1.6-0.4-3.2-1.3-4.8c-2.5-4.9-10.7-10.1-24.7-15.6c-17-6.6-27.2-10.8-30.5-12.3
			c-17.5-8.7-26.2-19.4-26.2-32.2c0-9.4,3.5-17.9,10.4-25.5c9.5-10.4,22.1-15.6,37.7-15.6c12.4,0,23.2,3.6,32.5,10.8
			c10.4,8.2,15.6,18.3,15.6,30.3L674.8,204L674.8,204z"/>
		<path class="st1" d="M736.5,279.5c0.1,8.5,5.4,12.9,15.8,13.2h8.7V310h-8.7c-4,0-7.9-0.4-11.5-1.3c-14.4-3.3-21.6-13-21.6-29v-0.2
			v-56.1h-5.8h-8.7v-17.3h8.7h5.8v-22.7l0.2-8.4h17.5l-0.2,8.7v22.5h15.6h8.7v17.3h-8.7h-15.6L736.5,279.5z"/>
		<path class="st1" d="M782.4,222.8c9.4-11.1,21-16.7,34.9-16.7c11.7,0,22,4.2,30.9,12.6c11.1,10.2,16.7,23.4,16.7,39.4
			c0,13.6-4.3,25.3-12.8,35.3c-9.4,11.1-21,16.7-34.9,16.7c-11.7,0-22-4.2-30.9-12.6c-11.1-10.2-16.7-23.4-16.7-39.4
			C769.6,244.5,773.9,232.8,782.4,222.8z M793.2,279.1c6.1,9.1,14.1,13.6,24,13.6c6.8,0,12.8-2.3,18.2-6.9
			c8.1-7.1,12.1-16.3,12.1-27.7c0-7.6-2.1-14.6-6.3-21c-6.1-9.1-14.1-13.6-24-13.6c-6.8,0-12.9,2.3-18.2,6.9
			c-8.1,7.1-12.1,16.3-12.1,27.7C786.9,265.7,789,272.7,793.2,279.1z"/>
		<path class="st1" d="M962.7,290.1c-9.2,13.1-22,19.8-38.3,19.9c-11.2,0-21.3-4.1-30.1-12.3c-11-10.2-16.5-23.4-16.5-39.6
			c0-13.6,4.1-25.3,12.3-35.3c9.2-11.1,20.6-16.7,34.2-16.7c16.9,0.1,29.7,6.4,38.5,18.6l-14.3,10c-5.1-7.4-13.1-11.1-24.2-11.2
			c-6.6,0-12.5,2.3-17.5,6.9c-7.8,6.8-11.7,16-11.7,27.7c0,7.5,1.9,14.4,5.6,20.6c5.8,9.4,13.6,14.1,23.6,14.1
			c9.8-0.1,18-4.3,24.5-12.6L962.7,290.1z"/>
		<path class="st1" d="M1001.4,266.8v34.6v8.7h-17.3v-8.7v-34.6v-17.3v-86.6v-8.7h17.3v8.7v86.6h3l42.9-40.9l2.6-2.4h25.1
			l-15.6,14.9l-39,37l39,37l15.6,14.9h-25.1l-2.6-2.4l-42.9-40.9L1001.4,266.8L1001.4,266.8z"/>
	</g>
	<g>
		<g>
			<defs>
				<path id="SVGID_3_" d="M189.6,282.7c0,15.8,12.8,28.6,28.6,28.6s28.6-12.8,28.6-28.6c0-15.8-12.8-28.6-28.6-28.6
					C202.4,254.1,189.6,266.9,189.6,282.7"/>
			</defs>
			<clipPath id="SVGID_4_">
				<use xlink:href="#SVGID_3_"  style="overflow:visible;"/>
			</clipPath>
			
				<linearGradient id="SVGID_5_" gradientUnits="userSpaceOnUse" x1="572.1204" y1="-2072.8872" x2="578.9177" y2="-2072.8872" gradientTransform="matrix(73.8905 -90.3106 90.3106 73.8905 144931.0625 205382.5625)">
				<stop  offset="0" style="stop-color:#2AFFE2"/>
				<stop  offset="9.170000e-02" style="stop-color:#37E7DA"/>
				<stop  offset="0.2935" style="stop-color:#51B9C9"/>
				<stop  offset="0.4865" style="stop-color:#6595BD"/>
				<stop  offset="0.6657" style="stop-color:#737AB4"/>
				<stop  offset="0.8261" style="stop-color:#7C6BAE"/>
				<stop  offset="0.9518" style="stop-color:#7F65AC"/>
				<stop  offset="1" style="stop-color:#7F65AC"/>
			</linearGradient>
			<polygon class="st2" points="161.5,288.3 212.5,226 274.9,277 223.9,339.4 			"/>
		</g>
	</g>
	<g>
		<g>
			<defs>
				<path id="SVGID_6_" d="M267.1,97.5c0,12,9.7,21.8,21.8,21.8s21.8-9.7,21.8-21.8s-9.7-21.8-21.8-21.8
					C276.9,75.7,267.1,85.5,267.1,97.5"/>
			</defs>
			<clipPath id="SVGID_7_">
				<use xlink:href="#SVGID_6_"  style="overflow:visible;"/>
			</clipPath>
			
				<linearGradient id="SVGID_8_" gradientUnits="userSpaceOnUse" x1="573.536" y1="-2073.3079" x2="578.7057" y2="-2073.3079" gradientTransform="matrix(73.8905 -90.3106 90.3106 73.8905 144920.6094 205374.0625)">
				<stop  offset="0" style="stop-color:#2AFFE2"/>
				<stop  offset="9.170000e-02" style="stop-color:#37E7DA"/>
				<stop  offset="0.2935" style="stop-color:#51B9C9"/>
				<stop  offset="0.4865" style="stop-color:#6595BD"/>
				<stop  offset="0.6657" style="stop-color:#737AB4"/>
				<stop  offset="0.8261" style="stop-color:#7C6BAE"/>
				<stop  offset="0.9518" style="stop-color:#7F65AC"/>
				<stop  offset="1" style="stop-color:#7F65AC"/>
			</linearGradient>
			<polygon class="st3" points="245.8,101.8 284.6,54.4 332,93.2 293.2,140.6 			"/>
		</g>
	</g>
	<g>
		<g>
			<defs>
				<path id="SVGID_9_" d="M175.2,55.7c0,19.8,16,35.8,35.8,35.8c19.8,0,35.8-16,35.8-35.8c0-19.8-16-35.8-35.8-35.8
					C191.2,19.9,175.2,36,175.2,55.7"/>
			</defs>
			<clipPath id="SVGID_10_">
				<use xlink:href="#SVGID_9_"  style="overflow:visible;"/>
			</clipPath>
			
				<linearGradient id="SVGID_11_" gradientUnits="userSpaceOnUse" x1="572.3745" y1="-2073.8516" x2="579.1788" y2="-2073.8516" gradientTransform="matrix(73.8905 -90.3106 90.3106 73.8905 144902.6406 205359.3125)">
				<stop  offset="0" style="stop-color:#2AFFE2"/>
				<stop  offset="9.170000e-02" style="stop-color:#37E7DA"/>
				<stop  offset="0.2935" style="stop-color:#51B9C9"/>
				<stop  offset="0.4865" style="stop-color:#6595BD"/>
				<stop  offset="0.6657" style="stop-color:#737AB4"/>
				<stop  offset="0.8261" style="stop-color:#7C6BAE"/>
				<stop  offset="0.9518" style="stop-color:#7F65AC"/>
				<stop  offset="1" style="stop-color:#7F65AC"/>
			</linearGradient>
			<polygon class="st4" points="140.1,62.8 203.9,-15.2 282,48.7 218.1,126.7 			"/>
		</g>
	</g>
	<g>
		<g>
			<defs>
				<path id="SVGID_12_" d="M273.4,19.2c0,6.9,5.6,12.6,12.6,12.6c6.9,0,12.6-5.6,12.6-12.6c0-7-5.6-12.6-12.6-12.6
					C279,6.6,273.4,12.2,273.4,19.2"/>
			</defs>
			<clipPath id="SVGID_13_">
				<use xlink:href="#SVGID_12_"  style="overflow:visible;"/>
			</clipPath>
			
				<linearGradient id="SVGID_14_" gradientUnits="userSpaceOnUse" x1="574.0906" y1="-2073.6409" x2="578.4024" y2="-2073.6409" gradientTransform="matrix(73.8905 -90.3106 90.3106 73.8905 144910.6094 205365.8125)">
				<stop  offset="0" style="stop-color:#2AFFE2"/>
				<stop  offset="9.170000e-02" style="stop-color:#37E7DA"/>
				<stop  offset="0.2935" style="stop-color:#51B9C9"/>
				<stop  offset="0.4865" style="stop-color:#6595BD"/>
				<stop  offset="0.6657" style="stop-color:#737AB4"/>
				<stop  offset="0.8261" style="stop-color:#7C6BAE"/>
				<stop  offset="0.9518" style="stop-color:#7F65AC"/>
				<stop  offset="1" style="stop-color:#7F65AC"/>
			</linearGradient>
			<polygon class="st5" points="261.1,21.7 283.5,-5.7 310.9,16.7 288.5,44.1 			"/>
		</g>
	</g>
	<g>
		<g>
			<defs>
				<path id="SVGID_15_" d="M242,213.2c0,7.3,5.9,13.2,13.3,13.2c7.3,0,13.2-5.9,13.2-13.2c0-7.3-5.9-13.3-13.2-13.3
					C247.9,199.9,242,205.8,242,213.2"/>
			</defs>
			<clipPath id="SVGID_16_">
				<use xlink:href="#SVGID_15_"  style="overflow:visible;"/>
			</clipPath>
			
				<linearGradient id="SVGID_17_" gradientUnits="userSpaceOnUse" x1="572.4688" y1="-2072.7925" x2="577.0166" y2="-2072.7925" gradientTransform="matrix(73.8905 -90.3106 90.3106 73.8905 144910.6094 205365.8125)">
				<stop  offset="0" style="stop-color:#2AFFE2"/>
				<stop  offset="9.170000e-02" style="stop-color:#37E7DA"/>
				<stop  offset="0.2935" style="stop-color:#51B9C9"/>
				<stop  offset="0.4865" style="stop-color:#6595BD"/>
				<stop  offset="0.6657" style="stop-color:#737AB4"/>
				<stop  offset="0.8261" style="stop-color:#7C6BAE"/>
				<stop  offset="0.9518" style="stop-color:#7F65AC"/>
				<stop  offset="1" style="stop-color:#7F65AC"/>
			</linearGradient>
			<polygon class="st6" points="229,215.8 252.6,186.9 281.5,210.5 257.8,239.4 			"/>
		</g>
	</g>
	<g>
		<g>
			<defs>
				<path id="SVGID_18_" d="M5,124c0,21.3,17.3,38.6,38.6,38.6s38.6-17.3,38.6-38.6S65,85.3,43.6,85.3S5,102.6,5,124"/>
			</defs>
			<clipPath id="SVGID_19_">
				<use xlink:href="#SVGID_18_"  style="overflow:visible;"/>
			</clipPath>
			
				<linearGradient id="SVGID_20_" gradientUnits="userSpaceOnUse" x1="572.7687" y1="-2074.4451" x2="577.6246" y2="-2074.4451" gradientTransform="matrix(73.8905 -90.3106 90.3106 73.8905 144889.3281 205348.5625)">
				<stop  offset="0" style="stop-color:#2AFFE2"/>
				<stop  offset="9.170000e-02" style="stop-color:#37E7DA"/>
				<stop  offset="0.2935" style="stop-color:#51B9C9"/>
				<stop  offset="0.4865" style="stop-color:#6595BD"/>
				<stop  offset="0.6657" style="stop-color:#737AB4"/>
				<stop  offset="0.8261" style="stop-color:#7C6BAE"/>
				<stop  offset="0.9518" style="stop-color:#7F65AC"/>
				<stop  offset="1" style="stop-color:#7F65AC"/>
			</linearGradient>
			<polygon class="st7" points="-32.9,131.6 36,47.5 120.1,116.3 51.3,200.5 			"/>
		</g>
	</g>
	<g>
		<g>
			<g>
				<defs>
					<path id="SVGID_21_" d="M95,167.4c0,39.6,32.1,71.7,71.7,71.7s71.7-32.1,71.7-71.7c0-39.6-32.1-71.7-71.7-71.7
						S95,127.8,95,167.4"/>
				</defs>
				<clipPath id="SVGID_22_">
					<use xlink:href="#SVGID_21_"  style="overflow:visible;"/>
				</clipPath>
				
					<linearGradient id="SVGID_23_" gradientUnits="userSpaceOnUse" x1="573.1503" y1="-2073.6084" x2="578.7905" y2="-2073.6084" gradientTransform="matrix(73.8905 -90.3106 90.3106 73.8905 144910.5781 205365.8125)">
					<stop  offset="0" style="stop-color:#2AFFE2"/>
					<stop  offset="9.170000e-02" style="stop-color:#37E7DA"/>
					<stop  offset="0.2935" style="stop-color:#51B9C9"/>
					<stop  offset="0.4865" style="stop-color:#6595BD"/>
					<stop  offset="0.6657" style="stop-color:#737AB4"/>
					<stop  offset="0.8261" style="stop-color:#7C6BAE"/>
					<stop  offset="0.9518" style="stop-color:#7F65AC"/>
					<stop  offset="1" style="stop-color:#7F65AC"/>
				</linearGradient>
				<polygon class="st8" points="30.6,182 155.1,29.8 307.3,154.3 182.8,306.5 				"/>
			</g>
		</g>
	</g>
</g>
</svg>
